<?xml version="1.0" encoding="UTF-8" standalone="no"?>
<svg
   xmlns:dc="http://purl.org/dc/elements/1.1/"
   xmlns:cc="http://creativecommons.org/ns#"
   xmlns:rdf="http://www.w3.org/1999/02/22-rdf-syntax-ns#"
   xmlns:svg="http://www.w3.org/2000/svg"
   xmlns="http://www.w3.org/2000/svg"
   xmlns:sodipodi="http://sodipodi.sourceforge.net/DTD/sodipodi-0.dtd"
   xmlns:inkscape="http://www.inkscape.org/namespaces/inkscape"
   id="svg"
   version="1.1"
   width="210.31075"
   height="210.07414"
   style="display:block"
   inkscape:version="0.91 r13725"
   sodipodi:docname="sf.svg">
  <metadata
     id="metadata13">
    <rdf:RDF>
      <cc:Work
         rdf:about="">
        <dc:format>image/svg+xml</dc:format>
        <dc:type
           rdf:resource="http://purl.org/dc/dcmitype/StillImage" />
        <dc:title />
      </cc:Work>
    </rdf:RDF>
  </metadata>
  <defs
     id="defs11">
    <filter
       inkscape:label="Opacity"
       style="color-interpolation-filters:sRGB;"
       id="filter4144">
      <feColorMatrix
         values="1 0 0 0 0 0 1 0 0 0 0 0 1 0 0 0 0 0 745 -320.3 "
         result="colormatrix"
         id="feColorMatrix4146" />
      <feComposite
         in2="colormatrix"
         operator="arithmetic"
         k2="0.4375"
         result="fbSourceGraphic"
         id="feComposite4148" />
      <feColorMatrix
         result="fbSourceGraphicAlpha"
         in="fbSourceGraphic"
         values="0 0 0 -1 0 0 0 0 -1 0 0 0 0 -1 0 0 0 0 1 0"
         id="feColorMatrix4150" />
      <feColorMatrix
         id="feColorMatrix4152"
         values="1 0 0 0 0 0 1 0 0 0 0 0 1 0 0 0 0 0 745 -320.3 "
         result="colormatrix"
         in="fbSourceGraphic" />
      <feComposite
         id="feComposite4154"
         in2="colormatrix"
         operator="arithmetic"
         k2="0.44"
         result="composite" />
    </filter>
  </defs>
  <sodipodi:namedview
     pagecolor="#ffffff"
     bordercolor="#666666"
     borderopacity="1"
     objecttolerance="10"
     gridtolerance="10"
     guidetolerance="10"
     inkscape:pageopacity="0"
     inkscape:pageshadow="2"
     inkscape:window-width="2560"
     inkscape:window-height="1377"
     id="namedview9"
     showgrid="false"
     fit-margin-top="0"
     fit-margin-left="0"
     fit-margin-right="0"
     fit-margin-bottom="0"
     inkscape:zoom="0.85565863"
     inkscape:cx="-140.22375"
     inkscape:cy="266.15244"
     inkscape:window-x="-8"
     inkscape:window-y="-8"
     inkscape:window-maximized="1"
     inkscape:current-layer="svg" />
  <g
     id="svgg"
     transform="translate(-94.73125,-0.04237317)"
     style="filter:url(#filter4144)">
    <path
       id="path0"
       d="m 165.756,44.1 c -0.924,0.911 -1.851,1.666 -2.061,1.678 -0.209,0.011 -1.099,0.777 -1.979,1.701 -0.879,0.924 -1.748,1.681 -1.93,1.681 -0.183,0 -1.029,0.615 -1.88,1.366 -1.796,1.584 -2.335,2.033 -5.166,4.307 -1.151,0.924 -2.664,2.194 -3.362,2.823 -0.698,0.628 -1.741,1.525 -2.319,1.993 l -1.051,0.85 1.471,1.311 c 4.43,3.949 5.506,5.052 7.342,7.531 1.107,1.495 2.274,3.331 2.592,4.08 0.62,1.46 1.604,1.642 2.765,0.512 1.42,-1.383 3.277,-2.925 3.523,-2.925 0.145,0 0.997,-0.756 1.894,-1.68 0.897,-0.925 1.734,-1.681 1.859,-1.681 0.317,0 1.307,-0.84 2.6,-2.206 0.601,-0.635 1.266,-1.155 1.476,-1.155 0.211,0 0.951,-0.568 1.644,-1.261 0.693,-0.693 1.405,-1.26 1.581,-1.26 0.177,0 1.102,-0.765 2.056,-1.701 l 1.734,-1.7 -1.779,-1.766 c -2.487,-2.47 -4.153,-4.625 -5.356,-6.931 -0.568,-1.088 -1.154,-2.035 -1.304,-2.104 -0.15,-0.069 -0.622,-1.249 -1.05,-2.622 -0.921,-2.953 -1.109,-3.001 -3.3,-0.841 m -26.68,75.922 c -0.347,0.114 -1.009,0.363 -1.471,0.553 -2.723,1.12 -9.271,1.738 -13.655,1.291 l -1.891,-0.193 0.133,1.663 c 0.073,0.915 0.309,1.844 0.525,2.063 0.216,0.22 0.392,0.718 0.392,1.107 0,0.808 1.164,4.878 1.685,5.89 0.19,0.371 0.48,1.6 0.644,2.731 0.164,1.132 0.442,2.247 0.617,2.478 0.175,0.231 0.446,1.082 0.602,1.891 0.155,0.809 0.443,1.849 0.639,2.311 0.585,1.381 1.696,5.869 1.696,6.855 0,0.505 0.176,0.918 0.392,0.918 0.216,0 0.452,0.505 0.525,1.123 0.173,1.459 0.912,1.669 2.009,0.572 0.861,-0.86 6.095,-4.216 6.576,-4.216 0.135,0 0.84,-0.257 1.569,-0.571 2.98,-1.286 3.689,-1.508 5.639,-1.767 l 2.038,-0.27 -0.474,-2.373 c -0.26,-1.305 -0.598,-2.656 -0.749,-3.002 -0.294,-0.673 -1.062,-3.659 -1.431,-5.568 -0.123,-0.635 -0.369,-1.155 -0.547,-1.155 -0.179,0 -0.454,-1.04 -0.613,-2.311 -0.159,-1.271 -0.44,-2.311 -0.625,-2.311 -0.184,0 -0.46,-0.938 -0.612,-2.083 -0.152,-1.146 -0.46,-2.198 -0.684,-2.336 -0.225,-0.139 -0.408,-0.698 -0.408,-1.244 0,-2.1 -0.681,-2.652 -2.521,-2.046 m 132.673,1.704 c 0.522,0.1 1.279,0.096 1.68,-0.009 0.402,-0.105 -0.026,-0.187 -0.95,-0.182 -0.924,0.004 -1.253,0.09 -0.73,0.191"
       inkscape:connector-curvature="0"
       style="fill:#df6d45;fill-rule:evenodd;stroke:none" />
    <path
       id="path1"
       d="m 168.51,43.067 c -0.048,0.756 1.395,4.412 1.741,4.412 0.186,0 0.337,-0.07 0.337,-0.156 0,-0.412 -2.056,-4.621 -2.078,-4.256 m 2.078,5.017 c 0,1.011 3.201,5.481 5.998,8.377 2.401,2.485 2.276,1.589 -0.143,-1.026 -1.162,-1.256 -2.806,-3.324 -3.654,-4.595 -1.863,-2.792 -2.201,-3.215 -2.201,-2.756 m -24.79,12.766 c 0,0.226 1.208,1.391 2.684,2.589 3.047,2.472 6.537,6.638 8.125,9.698 0.622,1.199 1.36,2.068 1.751,2.06 0.584,-0.011 0.576,-0.071 -0.06,-0.441 -0.404,-0.235 -0.735,-0.682 -0.735,-0.993 0,-0.696 -3.977,-6.284 -5.698,-8.007 -2.213,-2.215 -6.067,-5.331 -6.067,-4.906 m -7.598,58.893 c -1.71,1 -7.428,1.77 -11.834,1.593 -4.518,-0.18 -6.286,0.196 -2.521,0.536 4.703,0.426 11.147,-0.189 13.76,-1.313 0.462,-0.199 1.502,-0.54 2.311,-0.758 l 1.471,-0.397 -1.261,-0.026 c -0.693,-0.013 -1.56,0.151 -1.926,0.365 m 6.968,24.987 c -0.231,0.069 -1.271,0.372 -2.311,0.673 -1.04,0.301 -2.08,0.679 -2.311,0.84 -0.231,0.161 -0.882,0.435 -1.446,0.608 -1.242,0.382 -6.359,3.476 -6.952,4.204 -0.234,0.287 -0.803,0.728 -1.266,0.981 -0.519,0.284 -0.614,0.464 -0.249,0.472 0.326,0.007 1.556,-0.731 2.734,-1.64 2.694,-2.078 7.616,-4.42 11.171,-5.314 1.502,-0.378 2.81,-0.761 2.906,-0.852 0.199,-0.186 -1.635,-0.164 -2.276,0.028 M 214.812,175 c 0.005,0.924 0.091,1.253 0.191,0.73 0.101,-0.522 0.097,-1.279 -0.008,-1.68 -0.106,-0.402 -0.188,0.026 -0.183,0.95 m -0.009,4.832 c 0,0.809 0.087,1.14 0.193,0.735 0.105,-0.404 0.105,-1.066 0,-1.47 -0.106,-0.405 -0.193,-0.074 -0.193,0.735"
       inkscape:connector-curvature="0"
       style="fill:#e37245;fill-rule:evenodd;stroke:none" />
    <path
       id="path2"
       d="m 230.513,45.436 c -1.501,3.706 -3.676,7.017 -6.734,10.251 -1.293,1.367 -2.35,2.55 -2.35,2.63 0,0.41 3.966,3.868 4.436,3.868 0.302,0 0.659,0.348 0.794,0.773 0.135,0.425 0.715,1.024 1.289,1.331 0.574,0.308 1.044,0.716 1.044,0.908 0,0.192 0.201,0.349 0.448,0.349 0.247,0 1.069,0.659 1.828,1.463 0.759,0.805 1.473,1.37 1.587,1.256 0.114,-0.114 1.048,0.611 2.077,1.61 1.028,1 2.192,1.941 2.586,2.092 0.395,0.152 0.717,0.458 0.717,0.681 0,0.222 0.393,0.529 0.872,0.681 0.48,0.153 0.765,0.385 0.633,0.516 -0.389,0.39 1.316,1.385 1.954,1.14 0.322,-0.123 1.323,-1.494 2.225,-3.046 1.045,-1.797 3.214,-4.368 5.977,-7.082 4.283,-4.206 4.94,-5.613 2.623,-5.613 -0.199,0 -0.482,-0.381 -0.63,-0.847 -0.148,-0.465 -0.421,-0.752 -0.607,-0.637 -0.187,0.115 -0.989,-0.402 -1.783,-1.149 -0.795,-0.748 -2.094,-1.856 -2.888,-2.464 -0.794,-0.608 -1.933,-1.553 -2.533,-2.101 -0.599,-0.548 -1.909,-1.657 -2.909,-2.466 -2.098,-1.697 -3.936,-3.255 -5.077,-4.307 -0.439,-0.404 -0.901,-0.735 -1.026,-0.735 -0.126,0 -0.738,-0.473 -1.362,-1.051 -1.625,-1.507 -1.847,-1.371 -3.191,1.949 m 27.89,74.312 c 0,0.462 -0.167,0.84 -0.371,0.84 -0.205,0 -0.502,1.04 -0.661,2.311 -0.159,1.271 -0.443,2.311 -0.631,2.311 -0.338,0 -0.831,1.837 -0.987,3.677 -0.045,0.52 -0.223,0.945 -0.396,0.945 -0.173,0 -0.315,0.457 -0.315,1.015 0,0.559 -0.193,1.08 -0.428,1.158 -0.235,0.079 -0.545,1.134 -0.689,2.346 -0.143,1.212 -0.41,2.204 -0.592,2.204 -0.182,0 -0.461,1.04 -0.62,2.311 -0.159,1.271 -0.456,2.31 -0.661,2.31 -0.204,0 -0.371,0.473 -0.371,1.051 0,0.578 -0.189,1.05 -0.42,1.05 -0.232,0 -0.421,0.284 -0.421,0.631 0,0.346 0.369,0.63 0.82,0.63 1.542,0 8.244,1.965 10.26,3.008 0.492,0.255 2.187,1.315 3.766,2.354 3.381,2.227 3.921,2.041 4.341,-1.501 0.142,-1.199 0.421,-2.181 0.62,-2.181 0.199,0 0.361,-0.472 0.361,-1.05 0,-0.578 0.178,-1.05 0.395,-1.05 0.217,0 0.524,-0.898 0.683,-1.996 0.159,-1.098 0.436,-2.185 0.617,-2.416 0.18,-0.231 0.461,-1.316 0.624,-2.412 0.163,-1.095 0.439,-1.903 0.612,-1.796 0.174,0.107 0.433,-0.792 0.576,-1.998 0.143,-1.206 0.452,-2.257 0.687,-2.335 0.236,-0.078 0.428,-0.683 0.428,-1.343 0,-0.661 0.184,-1.314 0.408,-1.453 0.225,-0.139 0.532,-1.186 0.684,-2.328 0.151,-1.141 0.44,-1.973 0.642,-1.849 0.202,0.125 0.367,-0.417 0.367,-1.204 l 0,-1.431 -5.357,-0.023 c -5.198,-0.021 -8.36,-0.572 -12.422,-2.163 -1.544,-0.605 -1.549,-0.604 -1.549,0.377 m -73.334,57.248 c -0.011,4.76 -0.2,7.051 -0.735,8.912 -0.396,1.377 -0.721,2.653 -0.721,2.836 0,0.182 7.391,0.332 16.424,0.332 l 16.423,0 -0.295,-1.786 c -0.163,-0.982 -0.509,-2.164 -0.77,-2.626 -0.295,-0.524 -0.474,-3.334 -0.476,-7.458 l -0.003,-6.618 -14.916,0 -14.916,0 -0.015,6.408"
       inkscape:connector-curvature="0"
       style="fill:#dd5900;fill-rule:evenodd;stroke:none" />
    <path
       id="path3"
       d="m 205.567,1.046 c 0,0.588 -0.199,1.87 -0.443,2.848 -0.594,2.381 -1.161,4.808 -2.183,9.341 -0.469,2.08 -1.031,4.538 -1.249,5.462 -0.218,0.925 -0.795,3.477 -1.282,5.673 -0.487,2.195 -1.241,5.504 -1.676,7.353 -0.435,1.848 -2.125,9.317 -3.755,16.596 -1.63,7.28 -3.162,13.949 -3.403,14.82 -0.562,2.031 -0.296,2.407 1.701,2.407 0.897,0 1.748,0.189 1.891,0.42 0.32,0.518 9.874,0.571 9.874,0.055 0,-0.202 1.324,-0.497 2.941,-0.656 1.618,-0.159 2.941,-0.447 2.941,-0.639 0,-0.192 0.52,-0.475 1.156,-0.628 1.595,-0.386 3.466,-1.222 3.466,-1.55 0,-0.15 0.473,-0.391 1.051,-0.536 0.577,-0.145 1.05,-0.449 1.05,-0.675 0,-0.227 0.247,-0.413 0.549,-0.413 0.655,0 3.233,-2.065 3.233,-2.59 0,-0.202 1.32,-1.896 2.935,-3.764 3.106,-3.594 4.876,-6.418 6.117,-9.758 0.416,-1.12 1.008,-2.133 1.314,-2.251 0.307,-0.118 0.558,-0.629 0.558,-1.135 0,-0.507 0.198,-1.12 0.44,-1.362 0.671,-0.67 0.952,-8.804 0.412,-11.913 -0.26,-1.502 -0.58,-3.345 -0.709,-4.096 -0.129,-0.751 -0.382,-1.366 -0.562,-1.366 -0.181,0 -0.455,-0.676 -0.61,-1.502 -0.155,-0.826 -0.645,-2.15 -1.09,-2.941 -0.444,-0.792 -0.688,-1.439 -0.541,-1.439 0.147,0 -0.105,-0.331 -0.561,-0.736 -0.456,-0.404 -0.952,-1.066 -1.102,-1.47 -0.15,-0.405 -0.468,-0.735 -0.706,-0.735 -0.238,0 -0.433,-0.282 -0.433,-0.627 0,-0.345 -0.567,-1.169 -1.261,-1.831 -0.693,-0.663 -1.26,-1.421 -1.26,-1.685 0,-0.263 -0.16,-0.479 -0.356,-0.479 -0.196,0 -1.037,-0.662 -1.87,-1.471 -0.833,-0.809 -1.699,-1.47 -1.925,-1.47 -0.226,0 -0.722,-0.311 -1.102,-0.691 -1.258,-1.258 -3.462,-2.58 -4.786,-2.871 -0.718,-0.158 -1.306,-0.423 -1.306,-0.589 0,-0.395 -2.285,-1.189 -4.412,-1.533 -0.924,-0.15 -1.987,-0.355 -2.363,-0.457 -0.5,-0.136 -0.683,0.101 -0.683,0.884 m 65.441,54.353 c 0,0.196 -1.923,0.474 -4.273,0.617 -2.351,0.143 -4.384,0.431 -4.517,0.641 -0.134,0.209 -0.891,0.521 -1.683,0.693 -2.16,0.469 -4.84,2.108 -7.071,4.325 -1.096,1.089 -2.655,2.567 -3.464,3.284 -2.396,2.122 -5.365,5.88 -6.649,8.414 -0.483,0.953 -1.17,1.845 -1.526,1.982 -0.357,0.137 -0.649,0.739 -0.649,1.337 0,0.619 -0.181,0.977 -0.42,0.829 -0.244,-0.151 -0.42,0.264 -0.42,0.991 0,0.687 -0.236,1.329 -0.525,1.425 -0.632,0.21 -0.763,15.544 -0.146,16.912 0.209,0.462 0.45,1.253 0.536,1.758 0.086,0.505 0.434,1.45 0.774,2.101 0.339,0.65 0.618,1.49 0.619,1.867 0.001,0.376 0.247,0.887 0.547,1.135 0.299,0.248 0.807,1.122 1.128,1.942 0.322,0.82 0.724,1.491 0.893,1.491 0.169,0 0.744,0.709 1.278,1.575 0.534,0.867 1.448,1.999 2.03,2.515 0.583,0.516 1.248,1.128 1.48,1.359 0.231,0.231 0.987,0.99 1.68,1.687 0.694,0.696 1.455,1.266 1.693,1.267 0.238,0 0.705,0.378 1.038,0.841 0.333,0.462 0.834,0.84 1.114,0.84 0.279,0 0.8,0.293 1.158,0.651 0.358,0.358 1.647,0.815 2.866,1.015 1.218,0.201 2.778,0.582 3.466,0.846 2.733,1.05 7.321,1.734 11.144,1.66 2.196,-0.043 4.348,0.071 4.783,0.252 0.458,0.192 1.118,0.126 1.57,-0.156 0.428,-0.268 1.254,-0.487 1.835,-0.487 0.581,0 1.056,-0.172 1.056,-0.383 0,-0.211 0.756,-0.511 1.681,-0.667 0.924,-0.156 1.68,-0.456 1.68,-0.667 0,-0.211 0.201,-0.383 0.446,-0.383 0.755,0 4.987,-2.126 5.326,-2.676 0.177,-0.285 0.982,-0.976 1.791,-1.535 1.763,-1.219 4.816,-4.374 5.786,-5.979 0.384,-0.635 0.846,-1.155 1.028,-1.155 0.181,0 0.329,-0.186 0.329,-0.414 0,-0.227 0.551,-1.315 1.224,-2.416 0.673,-1.101 1.288,-2.38 1.366,-2.842 0.078,-0.462 0.297,-0.955 0.488,-1.095 0.191,-0.14 0.452,-1.038 0.581,-1.996 0.128,-0.958 0.398,-1.741 0.598,-1.741 0.201,0 0.365,-3.782 0.365,-8.404 0,-4.621 -0.168,-8.403 -0.372,-8.403 -0.205,0 -0.5,-0.851 -0.656,-1.891 -0.156,-1.04 -0.461,-1.89 -0.678,-1.89 -0.217,0 -0.395,-0.397 -0.395,-0.881 0,-0.905 -1.064,-3.08 -1.996,-4.079 -0.288,-0.309 -0.525,-0.764 -0.525,-1.01 0,-0.245 -0.473,-0.885 -1.05,-1.42 -0.578,-0.536 -1.051,-1.085 -1.051,-1.222 0,-0.517 -2.631,-3.276 -4.611,-4.834 -0.734,-0.578 -1.728,-1.381 -2.208,-1.786 -0.48,-0.404 -1.127,-0.735 -1.438,-0.735 -0.312,0 -0.566,-0.146 -0.566,-0.326 0,-0.179 -0.849,-0.699 -1.887,-1.155 -1.038,-0.456 -1.889,-0.963 -1.891,-1.126 -0.002,-0.163 -0.713,-0.426 -1.579,-0.586 -0.867,-0.159 -1.692,-0.468 -1.833,-0.685 -0.142,-0.218 -2.175,-0.502 -4.517,-0.631 -2.343,-0.129 -4.26,-0.396 -4.26,-0.594 0,-0.197 -0.567,-0.359 -1.26,-0.359 -0.693,0 -1.261,0.161 -1.261,0.357 m -153.361,65.189 c 0,0.231 0.284,0.42 0.63,0.42 0.347,0 0.631,-0.189 0.631,-0.42 0,-0.231 -0.284,-0.42 -0.631,-0.42 -0.346,0 -0.63,0.189 -0.63,0.42 m 32.143,23.53 c -0.143,0.231 0.118,0.42 0.581,0.42 0.462,0 0.957,-0.189 1.1,-0.42 0.142,-0.231 -0.119,-0.421 -0.581,-0.421 -0.462,0 -0.957,0.19 -1.1,0.421 m 3.781,0 c -0.147,0.238 0.206,0.42 0.816,0.42 0.591,0 1.075,-0.189 1.075,-0.42 0,-0.231 -0.367,-0.421 -0.815,-0.421 -0.449,0 -0.933,0.19 -1.076,0.421 m 90.967,-0.063 c 0,0.197 -1.474,0.472 -3.275,0.611 -1.802,0.139 -3.834,0.544 -4.517,0.9 -0.683,0.356 -1.496,0.648 -1.807,0.65 -0.311,0.001 -1.067,0.356 -1.681,0.788 -0.613,0.432 -1.541,0.917 -2.061,1.078 -0.519,0.162 -0.945,0.47 -0.945,0.686 0,0.215 -0.209,0.392 -0.465,0.392 -1.21,0 -9.322,7.647 -9.839,9.275 -0.141,0.445 -0.413,0.809 -0.603,0.809 -0.191,0 -0.476,0.518 -0.635,1.151 -0.159,0.633 -0.416,1.248 -0.571,1.365 -0.595,0.453 -1.752,2.904 -1.752,3.711 0,0.465 -0.205,0.914 -0.455,0.997 -1.061,0.354 -1.159,12.893 -0.138,17.607 0.371,1.71 0.704,3.772 0.74,4.58 0.069,1.555 1.1,4.202 1.636,4.202 0.174,0 0.317,0.384 0.317,0.854 0,0.469 0.283,0.962 0.628,1.094 0.346,0.133 0.538,0.386 0.429,0.564 -0.11,0.177 0.364,0.912 1.053,1.632 0.688,0.721 1.252,1.438 1.252,1.594 0,0.432 4.924,5.187 5.372,5.187 0.216,0 0.743,0.466 1.171,1.036 0.428,0.57 1.305,1.153 1.95,1.294 0.644,0.142 1.171,0.41 1.171,0.597 0,0.187 0.661,0.464 1.47,0.616 0.809,0.152 1.471,0.41 1.471,0.575 0,0.164 0.524,0.53 1.164,0.814 5.156,2.282 25.306,1.619 25.306,-0.833 0,-0.175 0.202,-0.318 0.447,-0.318 0.83,0 4.8,-2.014 5.511,-2.796 0.943,-1.036 1.926,-1.826 2.272,-1.826 0.403,0 4.352,-3.923 4.365,-4.337 0.006,-0.189 0.247,-0.608 0.536,-0.93 1.227,-1.369 1.575,-1.862 1.575,-2.233 0,-0.216 0.284,-0.502 0.631,-0.635 0.346,-0.133 0.63,-0.626 0.63,-1.095 0,-0.47 0.174,-0.854 0.387,-0.854 0.212,0 0.511,-0.567 0.663,-1.26 0.152,-0.694 0.411,-1.261 0.574,-1.261 0.164,0 0.33,-0.422 0.369,-0.939 0.038,-0.517 0.26,-1.002 0.492,-1.08 0.231,-0.077 0.548,-1.266 0.704,-2.641 0.155,-1.376 0.447,-2.603 0.648,-2.727 0.474,-0.293 0.477,-11.1 0.003,-11.1 -0.199,0 -0.471,-1.067 -0.606,-2.371 -0.135,-1.304 -0.445,-2.571 -0.689,-2.815 -0.244,-0.245 -0.444,-0.879 -0.444,-1.411 0,-0.531 -0.174,-0.966 -0.387,-0.966 -0.213,0 -0.512,-0.568 -0.664,-1.261 -0.152,-0.693 -0.43,-1.26 -0.618,-1.26 -0.188,0 -0.46,-0.473 -0.605,-1.051 -0.145,-0.577 -0.449,-1.05 -0.676,-1.05 -0.226,0 -0.412,-0.284 -0.412,-0.63 0,-0.347 -0.176,-0.631 -0.392,-0.631 -0.215,0 -0.512,-0.381 -0.66,-0.846 -0.148,-0.466 -0.444,-0.738 -0.659,-0.606 -0.214,0.133 -0.39,-0.034 -0.39,-0.371 0,-0.9 -4.082,-4.919 -4.74,-4.666 -0.308,0.118 -1.022,-0.187 -1.587,-0.678 -2.868,-2.498 -9.505,-5.471 -13.572,-6.081 -1.095,-0.164 -2.252,-0.559 -2.57,-0.878 -0.643,-0.643 -6.522,-0.842 -6.522,-0.222 m -72.826,7.1 c -0.107,0.405 -0.388,1.587 -0.626,2.627 -0.237,1.039 -0.721,3.119 -1.073,4.621 -0.577,2.456 -1.231,5.328 -2.344,10.294 -0.207,0.925 -0.663,2.91 -1.013,4.412 -0.35,1.502 -0.947,4.149 -1.326,5.883 -0.379,1.733 -1.041,4.663 -1.469,6.512 -0.429,1.849 -1.179,5.158 -1.666,7.353 -0.487,2.196 -1.064,4.748 -1.282,5.672 -1.898,8.048 -2.623,11.555 -2.39,11.555 0.721,0 4.871,-0.909 5.553,-1.216 2.872,-1.295 3.961,-1.725 4.37,-1.725 0.254,0 0.462,-0.186 0.462,-0.412 0,-0.227 0.436,-0.522 0.969,-0.656 0.534,-0.134 1.316,-0.705 1.74,-1.268 0.423,-0.564 0.952,-1.025 1.174,-1.025 0.446,0 6.201,-5.631 6.201,-6.067 0,-0.149 0.395,-0.689 0.878,-1.199 0.483,-0.51 1.276,-1.779 1.762,-2.819 0.486,-1.039 1.065,-2.013 1.286,-2.164 0.22,-0.151 0.458,-1.096 0.528,-2.101 0.07,-1.005 0.53,-3.718 1.022,-6.029 0.697,-3.273 0.836,-4.944 0.626,-7.563 -0.148,-1.848 -0.335,-4.773 -0.417,-6.5 -0.083,-1.764 -0.348,-3.205 -0.605,-3.291 -0.252,-0.084 -0.459,-0.479 -0.459,-0.878 0,-0.398 -0.277,-1.092 -0.616,-1.54 -0.34,-0.449 -0.623,-1.158 -0.631,-1.576 -0.007,-0.418 -0.187,-0.653 -0.399,-0.522 -0.212,0.132 -0.511,-0.33 -0.664,-1.025 -0.152,-0.695 -0.439,-1.264 -0.636,-1.264 -0.197,0 -0.471,-0.355 -0.608,-0.788 -0.138,-0.434 -0.954,-1.513 -1.814,-2.398 -0.861,-0.886 -1.564,-1.802 -1.564,-2.036 0,-0.234 -0.422,-0.636 -0.937,-0.893 -0.515,-0.257 -1.405,-0.971 -1.976,-1.588 -1.209,-1.304 -1.786,-1.412 -2.056,-0.386"
       inkscape:connector-curvature="0"
       style="fill:#ff8c00;fill-rule:evenodd;stroke:none" />
    <path
       id="path4"
       d="m 191.492,0.522 c -1.329,0.227 -2.416,0.581 -2.416,0.786 0,0.205 -0.473,0.373 -1.051,0.373 -0.578,0 -1.05,0.174 -1.05,0.386 0,0.213 -0.567,0.512 -1.261,0.664 -0.693,0.152 -1.26,0.431 -1.26,0.618 0,0.188 -0.426,0.452 -0.946,0.586 -0.52,0.135 -1.494,0.723 -2.166,1.306 -0.671,0.584 -1.353,1.062 -1.515,1.062 -0.488,0 -5.255,4.76 -6.11,6.101 -0.439,0.688 -1.039,1.403 -1.333,1.587 -0.294,0.185 -0.535,0.611 -0.535,0.946 0,0.335 -0.177,0.609 -0.392,0.609 -0.451,0 -1.082,1.636 -0.933,2.416 0.056,0.289 -0.096,0.525 -0.338,0.525 -0.241,0 -0.438,0.284 -0.438,0.631 0,0.346 -0.187,0.63 -0.415,0.63 -0.229,0 -0.536,0.756 -0.684,1.681 -0.148,0.924 -0.396,1.68 -0.552,1.68 -0.326,0 -1.342,5.677 -1.241,6.933 0.037,0.462 -0.074,1.36 -0.246,1.996 -0.176,0.648 -0.146,1.155 0.07,1.155 0.211,0 0.403,1.277 0.427,2.836 0.051,3.443 0.513,6.474 0.946,6.207 0.175,-0.108 0.847,1.074 1.494,2.628 1.467,3.523 4.117,7.59 6.895,10.579 1.171,1.261 2.129,2.537 2.129,2.836 0,0.3 0.21,0.545 0.465,0.545 0.256,0 0.837,0.472 1.291,1.05 0.455,0.578 1.096,1.05 1.426,1.05 0.33,0 0.6,0.189 0.6,0.421 0,0.231 0.369,0.42 0.819,0.42 0.451,0 0.971,0.25 1.156,0.555 0.397,0.656 3.566,1.966 4.756,1.966 0.458,0 0.832,0.189 0.832,0.42 0,0.231 0.259,0.42 0.576,0.42 0.701,0 0.771,-0.263 4.482,-16.807 1.633,-7.279 3.325,-14.748 3.76,-16.596 0.435,-1.849 1.189,-5.158 1.676,-7.353 0.487,-2.196 1.064,-4.748 1.282,-5.673 0.389,-1.648 1.699,-7.395 2.539,-11.134 0.234,-1.04 0.676,-2.931 0.983,-4.202 0.307,-1.271 0.468,-2.547 0.358,-2.836 -0.244,-0.642 -10.339,-0.644 -14.08,-0.003 M 126.719,55.4 c -0.121,0.196 -2.051,0.466 -4.288,0.6 -2.237,0.133 -4.181,0.416 -4.32,0.628 -0.14,0.212 -0.821,0.514 -1.514,0.672 -1.669,0.38 -5.794,2.435 -6.219,3.099 -0.185,0.289 -0.658,0.525 -1.052,0.525 -0.395,0 -1.269,0.662 -1.943,1.471 -0.675,0.809 -1.442,1.471 -1.705,1.471 -0.528,0 -2.737,2.164 -2.737,2.682 0,0.178 -0.754,1.071 -1.675,1.983 -0.922,0.913 -1.793,2.127 -1.937,2.699 -0.143,0.571 -0.429,1.039 -0.635,1.039 -0.206,0 -0.375,0.378 -0.375,0.84 0,0.462 -0.189,0.841 -0.42,0.841 -0.231,0 -0.421,0.236 -0.423,0.525 -0.001,0.289 -0.286,1.07 -0.634,1.736 -0.347,0.666 -0.753,1.99 -0.901,2.941 -0.149,0.952 -0.478,1.865 -0.732,2.03 -0.637,0.414 -0.637,14.112 0,14.526 0.253,0.165 0.581,1.339 0.728,2.609 0.146,1.269 0.459,2.372 0.694,2.451 0.235,0.078 0.428,0.485 0.428,0.903 0,0.418 0.283,0.869 0.63,1.002 0.347,0.133 0.63,0.72 0.63,1.305 0,0.585 0.189,1.064 0.42,1.064 0.232,0 0.421,0.29 0.421,0.643 0,0.354 0.266,0.746 0.592,0.871 0.326,0.125 0.708,0.687 0.848,1.248 0.141,0.561 0.442,1.02 0.669,1.02 0.226,0 0.412,0.197 0.412,0.437 0,0.824 4.073,5.025 4.871,5.025 0.276,0 0.61,0.283 0.743,0.63 0.133,0.347 0.613,0.63 1.067,0.63 0.456,0 0.944,0.376 1.091,0.84 0.147,0.461 0.727,0.954 1.289,1.096 0.563,0.141 1.023,0.425 1.023,0.631 0,0.206 0.364,0.374 0.81,0.374 0.446,0 1.107,0.298 1.471,0.661 0.496,0.496 0.663,0.522 0.673,0.105 0.008,-0.35 0.171,-0.283 0.441,0.18 0.293,0.504 0.95,0.735 2.088,0.735 0.913,0 1.66,0.189 1.66,0.42 0,0.231 0.456,0.42 1.015,0.42 0.558,0 1.126,0.237 1.26,0.526 0.164,0.349 0.319,0.374 0.466,0.074 0.145,-0.297 1.762,-0.39 4.727,-0.271 4.348,0.174 9.325,-0.48 11.943,-1.57 0.532,-0.221 2.056,-0.613 3.388,-0.872 1.332,-0.258 2.314,-0.645 2.181,-0.859 -0.132,-0.214 0.072,-0.389 0.454,-0.389 0.852,0 2.79,-1.468 2.422,-1.835 -0.146,-0.146 0.097,-0.267 0.54,-0.268 0.837,-0.002 3.536,-2.262 3.536,-2.96 0,-0.22 0.22,-0.399 0.488,-0.399 0.493,0 2.137,-1.688 3.294,-3.382 0.346,-0.507 0.866,-1.17 1.155,-1.472 0.289,-0.301 0.526,-0.845 0.526,-1.209 0,-0.363 0.2,-0.66 0.444,-0.66 0.245,0 0.319,-0.204 0.165,-0.454 -0.154,-0.249 0.118,-0.733 0.605,-1.074 0.488,-0.341 0.886,-1.046 0.886,-1.567 0,-0.52 0.278,-1.313 0.617,-1.761 0.34,-0.449 0.623,-1.336 0.631,-1.972 0.007,-0.635 0.226,-1.155 0.486,-1.155 0.301,0 0.381,-0.458 0.22,-1.261 -0.142,-0.711 -0.073,-1.26 0.158,-1.26 0.539,0 0.547,-12.05 0.008,-12.384 -0.221,-0.136 -0.29,-0.54 -0.154,-0.896 0.351,-0.915 -0.659,-3.897 -1.889,-5.574 -0.571,-0.779 -1.491,-2.269 -2.044,-3.309 -1.071,-2.014 -5.861,-8.089 -6.377,-8.089 -0.17,0 -1.504,-1.135 -2.966,-2.521 -1.461,-1.387 -2.8,-2.521 -2.975,-2.521 -0.175,0 -0.553,-0.284 -0.841,-0.63 -0.287,-0.347 -0.849,-0.631 -1.247,-0.631 -0.669,0 -2.509,-0.731 -4.345,-1.726 -0.418,-0.227 -2.64,-0.527 -4.937,-0.667 -2.297,-0.14 -4.177,-0.415 -4.177,-0.611 0,-0.465 -1.564,-0.464 -1.852,10e-4 m 24.752,88.718 c -0.143,0.231 -0.914,0.42 -1.714,0.42 -3.959,0 -12.42,3.268 -16.39,6.33 -1.178,0.909 -2.433,1.653 -2.789,1.653 -0.804,0 -4.107,3.25 -4.107,4.041 0,0.319 -0.195,0.581 -0.434,0.581 -0.238,0 -0.559,0.331 -0.713,0.735 -0.155,0.405 -0.716,1.206 -1.248,1.782 -0.532,0.575 -0.967,1.284 -0.967,1.575 0,0.291 -0.236,0.533 -0.525,0.536 -0.393,0.005 -0.384,0.096 0.035,0.362 0.451,0.286 0.431,0.405 -0.105,0.61 -0.366,0.141 -0.665,0.719 -0.665,1.284 0,0.566 -0.172,1.092 -0.382,1.169 -0.21,0.077 -0.446,0.518 -0.525,0.98 -0.079,0.463 -0.285,0.946 -0.457,1.074 -0.172,0.129 -0.435,1.405 -0.585,2.837 -0.149,1.431 -0.434,2.602 -0.632,2.602 -0.474,0 -0.469,9.127 0.005,9.42 0.202,0.125 0.474,1.128 0.605,2.231 0.336,2.81 0.405,3.053 1.455,5.067 0.515,0.988 0.936,2.126 0.936,2.53 0,0.404 0.361,0.995 0.802,1.313 0.441,0.318 0.705,0.832 0.585,1.143 -0.119,0.311 -0.007,0.565 0.249,0.565 0.255,0 0.465,0.217 0.465,0.483 0,0.265 0.662,1.125 1.47,1.911 0.809,0.785 1.471,1.63 1.471,1.877 0,0.489 2.651,3.121 4.162,4.132 0.518,0.347 1.523,1.145 2.233,1.773 0.709,0.628 1.437,1.052 1.615,0.942 0.179,-0.111 0.602,0.075 0.939,0.412 0.337,0.337 1.109,0.738 1.714,0.89 0.606,0.152 1.102,0.445 1.102,0.651 0,0.206 0.457,0.374 1.015,0.374 0.559,0 1.078,0.186 1.155,0.412 0.259,0.761 4.618,1.269 10.879,1.269 l 6.212,0 0.278,-1.366 c 0.29,-1.416 1.607,-7.258 2.298,-10.189 0.218,-0.924 0.795,-3.476 1.282,-5.672 0.487,-2.195 1.237,-5.504 1.666,-7.353 0.428,-1.849 1.09,-4.779 1.469,-6.512 0.379,-1.734 0.955,-4.286 1.279,-5.673 0.325,-1.386 0.885,-3.844 1.245,-5.462 0.737,-3.311 1.278,-5.659 2.083,-9.033 0.303,-1.271 0.793,-3.446 1.09,-4.832 0.297,-1.387 0.695,-2.835 0.885,-3.218 0.267,-0.54 0.06,-0.795 -0.922,-1.138 -0.697,-0.243 -1.539,-0.686 -1.87,-0.984 -1.501,-1.351 -1.909,-1.593 -2.681,-1.593 -0.452,0 -0.887,-0.194 -0.966,-0.43 -0.079,-0.237 -0.898,-0.55 -1.821,-0.695 -0.922,-0.146 -1.785,-0.428 -1.916,-0.627 -0.131,-0.199 -2.063,-0.481 -4.293,-0.628 -2.23,-0.146 -3.955,-0.427 -3.833,-0.624 0.122,-0.197 -0.252,-0.358 -0.829,-0.358 -0.578,0 -1.168,0.19 -1.31,0.421"
       inkscape:connector-curvature="0"
       style="fill:#ff9645;fill-rule:evenodd;stroke:none" />
  </g>
</svg>
